<?xml version="1.0" standalone="no"?>
<svg xmlns="http://www.w3.org/2000/svg" viewBox="0 0 140.184 29" width="140.184" height="29"><g fill="#6a8bff" color="#6a8bff" transform="translate(0, 0) scale(0.29)"><svg width="100.0" height="100.0" x="0.0" y="0.0" viewBox="0 0 100 100"><path fill="currentColor" d="M60.114,96.016h21.423V69.715h-6.343V47.888h-1.362V31.542h-1.703V28.59h-1.135v-7.152h-1.249v-7.265h-1.249  V6h-0.682v8.173h-1.249v7.265h-1.249v7.152h-1.135v2.951h-1.703v16.347h-1.362v10.217h-3.065v-6.471h-3.86V39.602h-2.384v-5.562  h-1.589v-5.562h-0.232v5.562h-1.589v5.562h-2.384v12.033h-3.86v6.471h-3.065V47.888h-1.362V31.542h-1.703V28.59h-1.135v-7.152H33.64  v-7.265h-1.249V6h-0.682v8.173H30.46v7.265h-1.249v7.152h-1.135v2.951h-1.703v16.347h-1.362v21.827h-6.343v26.301h21.423  l9.088-0.072l-0.14,0.072h2.126l-0.14-0.072L60.114,96.016z M69.528,41.162c0-0.682,0.553-1.235,1.235-1.235  c0.682,0,1.235,0.553,1.235,1.235v4.135h-2.47V41.162z M65.492,41.162c0-0.682,0.553-1.235,1.235-1.235  c0.682,0,1.235,0.553,1.235,1.235v4.135h-2.47V41.162z M59.151,73.115c0-0.682,0.553-1.235,1.235-1.235s1.235,0.553,1.235,1.235  v4.135h-2.47V73.115z M59.151,84.887c0-0.682,0.553-1.235,1.235-1.235s1.235,0.553,1.235,1.235v5.944h-2.47V84.887z M30.676,45.296  h-2.47v-4.135c0-0.682,0.553-1.235,1.235-1.235c0.682,0,1.235,0.553,1.235,1.235V45.296z M34.713,45.296h-2.47v-4.135  c0-0.682,0.553-1.235,1.235-1.235c0.682,0,1.235,0.553,1.235,1.235V45.296z M41.054,90.831h-2.47v-5.944  c0-0.682,0.553-1.235,1.235-1.235c0.682,0,1.235,0.553,1.235,1.235V90.831z M41.054,77.25h-2.47v-4.135  c0-0.682,0.553-1.235,1.235-1.235c0.682,0,1.235,0.553,1.235,1.235V77.25z M48.156,46.941c0-1.071,0.868-1.939,1.939-1.939  c1.071,0,1.939,0.868,1.939,1.939v3.984h-3.878V46.941z M48.156,71.999c0-1.071,0.868-1.939,1.939-1.939  c1.071,0,1.939,0.868,1.939,1.939v5.372h-3.878V71.999z M44.549,95.598v-7.68c0-3.063,2.483-5.546,5.546-5.546l0,0  c3.063,0,5.546,2.483,5.546,5.546v7.68H44.549z"></path></svg></g><line x1="41" y1="1" x2="41" y2="28" stroke="#5e24c3" stroke-linecap="round"></line><path fill="#5e24c3" fill-rule="nonzero" d="M12.96 19.20L0 19.20L0 18.10L2.21 17.57L2.21 4.03L0 3.50L0 2.40L7.37 2.40L7.37 3.50L5.16 4.03L5.16 17.59L10.80 17.59L12.10 14.02L13.20 14.02L12.96 19.20ZM14.78 13.06L14.78 13.06Q14.78 10.42 16.30 8.63Q17.81 6.84 20.47 6.84L20.47 6.84Q21.86 6.84 22.91 7.36Q23.95 7.87 24.56 8.78Q25.18 9.70 25.46 10.82Q25.75 11.95 25.75 13.27L25.75 13.27L17.64 13.27Q17.81 15.24 18.96 16.62Q20.11 18 22.10 18L22.10 18Q23.38 18 24.86 17.45L24.86 17.45L25.27 18.58Q23.04 19.56 21.02 19.56L21.02 19.56Q18.12 19.56 16.45 17.66Q14.78 15.77 14.78 13.06ZM17.64 12.10L17.64 12.10L22.78 11.71Q22.70 10.27 22.10 9.22Q21.50 8.16 20.40 8.16L20.40 8.16Q19.20 8.16 18.44 9.29Q17.69 10.42 17.64 12.10ZM34.85 19.20L27.48 19.20L27.48 18.10L29.69 17.57L29.69 4.03L27.48 3.50L27.48 2.40L34.85 2.40L34.85 3.50L32.64 4.03L32.64 9.91L40.06 9.91L40.06 4.03L37.85 3.50L37.85 2.40L45.22 2.40L45.22 3.50L43.01 4.03L43.01 17.57L45.22 18.10L45.22 19.20L37.85 19.20L37.85 18.10L40.06 17.57L40.06 11.52L32.64 11.52L32.64 17.57L34.85 18.10L34.85 19.20ZM52.85 6.84L52.85 6.84Q55.49 6.84 57.22 8.63Q58.94 10.42 58.94 13.18L58.94 13.18Q58.94 15.96 57.22 17.76Q55.49 19.56 52.85 19.56L52.85 19.56Q50.21 19.56 48.47 17.76Q46.73 15.96 46.73 13.18L46.73 13.18Q46.73 10.42 48.47 8.63Q50.21 6.84 52.85 6.84ZM52.85 8.16L52.85 8.16Q51.36 8.16 50.56 9.53Q49.75 10.90 49.75 13.18L49.75 13.18Q49.75 15.46 50.56 16.85Q51.36 18.24 52.85 18.24L52.85 18.24Q54.34 18.24 55.14 16.84Q55.94 15.43 55.94 13.18L55.94 13.18Q55.94 10.90 55.14 9.53Q54.34 8.16 52.85 8.16ZM62.06 8.64L60.79 8.64L60.79 7.92L64.20 5.02L64.92 5.02L64.92 7.34L68.38 7.20L68.38 8.64L64.92 8.64L64.92 15.98Q64.92 18.12 66.62 18.12L66.62 18.12Q67.34 18.12 68.35 17.69L68.35 17.69L68.76 18.79Q67.27 19.56 65.69 19.56L65.69 19.56Q63.96 19.56 63.01 18.73Q62.06 17.90 62.06 15.86L62.06 15.86L62.06 8.64ZM69.86 13.06L69.86 13.06Q69.86 10.42 71.38 8.63Q72.89 6.84 75.55 6.84L75.55 6.84Q76.94 6.84 77.99 7.36Q79.03 7.87 79.64 8.78Q80.26 9.70 80.54 10.82Q80.83 11.95 80.83 13.27L80.83 13.27L72.72 13.27Q72.89 15.24 74.04 16.62Q75.19 18 77.18 18L77.18 18Q78.46 18 79.94 17.45L79.94 17.45L80.35 18.58Q78.12 19.56 76.10 19.56L76.10 19.56Q73.20 19.56 71.53 17.66Q69.86 15.77 69.86 13.06ZM72.72 12.10L72.72 12.10L77.86 11.71Q77.78 10.27 77.18 9.22Q76.58 8.16 75.48 8.16L75.48 8.16Q74.28 8.16 73.52 9.29Q72.77 10.42 72.72 12.10ZM89.18 19.20L82.22 19.20L82.22 18.17L84.26 17.69L84.26 1.94L82.22 1.94L82.22 0.91L86.06 0L87.14 0L87.14 17.69L89.18 18.17L89.18 19.20Z" transform="translate(51, 4.9)"></path></svg>